<?xml version="1.0" encoding="utf-8"?>
<!-- Generator: Adobe Illustrator 19.1.0, SVG Export Plug-In . SVG Version: 6.00 Build 0)  -->
<!DOCTYPE svg PUBLIC "-//W3C//DTD SVG 1.1//EN" "http://www.w3.org/Graphics/SVG/1.1/DTD/svg11.dtd">
<svg version="1.1" id="CONTENT" xmlns="http://www.w3.org/2000/svg" xmlns:xlink="http://www.w3.org/1999/xlink" x="0px" y="0px"
	 viewBox="0 0 836 648" style="enable-background:new 0 0 836 648;" xml:space="preserve">
<rect width="100%" height="100%" fill="#204056"/>
<style type="text/css">
	.st0{fill:none;stroke:#FFFFFF;stroke-miterlimit:10;}
	.st1{fill:#FFFFFF;}
	.st2{fill:#52B1DB;}
	.st3{fill:none;stroke:#52B1DB;stroke-miterlimit:10;}
	.st4{opacity:0.25;fill:#FFFFFF;}
</style>
<g>
	<path class="st1" d="M371.9,65.2c-0.8,0-1.5-0.1-2.2-0.3s-1.2-0.5-1.7-0.9s-0.9-0.9-1.2-1.4s-0.6-1.2-0.8-1.8
		c-0.2-0.7-0.2-1.4-0.2-2.1c0-1.3,0.2-2.5,0.7-3.5s1.2-1.8,2.2-2.4c1-0.6,2.1-0.9,3.5-0.9c1.5,0,2.8,0.3,3.9,1l-0.5,0.9
		c-0.5-0.3-1-0.5-1.6-0.7c-0.6-0.2-1.2-0.3-1.8-0.3c-0.9,0-1.6,0.2-2.3,0.5c-0.7,0.3-1.2,0.7-1.6,1.3s-0.7,1.2-0.9,1.9
		s-0.3,1.5-0.3,2.3c0,0.9,0.1,1.7,0.3,2.4s0.5,1.3,1,1.8s1,0.9,1.7,1.2s1.5,0.4,2.4,0.4c0.9,0,1.9-0.2,3-0.7v-4.2h-3.2l0.1-1h4.2
		v5.8c-0.7,0.4-1.4,0.6-2.1,0.8S372.8,65.2,371.9,65.2z"/>
	<path class="st1" d="M379,53.4v-1.5h1.1v1.5H379z M379,65v-9.6h1.1V65H379z"/>
	<path class="st1" d="M385.5,65.2c-0.8,0-1.4-0.2-1.8-0.5s-0.6-1-0.6-1.8v-6.7h-1.4l0.1-0.7l1.3-0.1l0.3-2.2l0.8-0.1v2.2h2.8v0.8
		h-2.8v6.5c0,0.7,0.1,1.1,0.3,1.4s0.6,0.3,1.2,0.3c0.4,0,0.8-0.1,1.4-0.2l0,0.8C386.4,65.1,385.9,65.2,385.5,65.2z"/>
	<path class="st1" d="M393.1,65V51.9h3.6c1.6,0,2.8,0.3,3.6,0.8c0.7,0.5,1.1,1.4,1.1,2.5c0,0.1,0,0.2,0,0.3c0,0.1,0,0.2,0,0.4
		s-0.1,0.4-0.1,0.5s-0.1,0.3-0.2,0.5s-0.2,0.4-0.4,0.5c-0.1,0.1-0.3,0.3-0.6,0.4s-0.5,0.3-0.8,0.4c0.9,0.1,1.6,0.5,2.1,1.1
		s0.7,1.3,0.7,2.1c0,1.2-0.4,2.1-1.1,2.7s-1.9,1-3.4,1H393.1z M394.2,57.7h3c0.5,0,0.9,0,1.2-0.1s0.6-0.2,0.9-0.4
		c0.3-0.2,0.5-0.4,0.6-0.8s0.2-0.7,0.2-1.2c0-0.9-0.3-1.5-0.8-1.9c-0.6-0.4-1.5-0.5-2.7-0.5h-2.4V57.7z M394.2,64.1h3
		c2.4,0,3.6-0.9,3.6-2.8c0-1-0.3-1.7-1-2.1s-1.7-0.6-3.1-0.6h-2.5V64.1z"/>
	<path class="st1" d="M403.9,65c0-5.7,0-8.9,0-9.6h0.9l0.1,1.9c0.3-0.6,0.8-1,1.3-1.4s1.1-0.5,1.7-0.5c0.2,0,0.5,0,0.8,0.1l-0.1,0.9
		c-0.2,0-0.4-0.1-0.7-0.1c-0.8,0-1.5,0.3-2.1,1c-0.6,0.6-0.8,1.4-0.8,2.3V65H403.9z"/>
	<path class="st1" d="M412.7,65.2c-0.9,0-1.6-0.2-2.2-0.7s-0.8-1.1-0.8-2c0-0.5,0.1-0.9,0.3-1.3s0.5-0.7,0.9-0.9
		c0.4-0.2,0.9-0.4,1.4-0.5s1.1-0.2,1.9-0.3c0.8,0,1.3-0.1,1.7-0.1v-1.1c0-0.7-0.2-1.3-0.5-1.7c-0.3-0.4-0.9-0.6-1.6-0.6
		c-1,0-2,0.2-2.9,0.7c0-0.1-0.1-0.2-0.2-0.4c-0.1-0.2-0.1-0.3-0.2-0.5c0.4-0.2,0.8-0.4,1.4-0.6s1.2-0.2,1.7-0.2c1.2,0,2,0.2,2.5,0.7
		s0.8,1.4,0.8,2.6V65h-0.9c0-0.1-0.1-0.4-0.1-0.8s-0.1-0.6-0.1-0.6C415.1,64.7,414.1,65.2,412.7,65.2z M412.7,64.3
		c0.8,0,1.4-0.2,2-0.7c0.6-0.4,1-1.1,1.1-1.8v-1.6c-0.8,0.1-1.3,0.1-1.3,0.1c-1.4,0.1-2.4,0.4-3,0.7s-0.8,0.9-0.8,1.6
		c0,0.6,0.2,1,0.5,1.3C411.7,64.2,412.1,64.3,412.7,64.3z"/>
	<path class="st1" d="M419.6,65v-9.6h0.9l0.1,1.5c0.3-0.5,0.8-0.9,1.4-1.2s1.2-0.4,1.9-0.4c1.1,0,1.9,0.3,2.4,0.9s0.8,1.6,0.8,2.9v6
		h-1.1v-6.5c0-0.9-0.2-1.5-0.5-1.8s-0.9-0.6-1.6-0.6c-0.9,0-1.6,0.2-2.1,0.7c-0.6,0.4-0.9,1-1,1.7c0,0.3,0,0.6,0,0.9V65H419.6z"/>
	<path class="st1" d="M433.7,65.2c-0.9,0-1.7-0.2-2.4-0.7s-1.2-1.1-1.5-1.8s-0.5-1.6-0.5-2.5c0-0.7,0.1-1.3,0.3-2s0.5-1.1,0.8-1.6
		c0.4-0.5,0.8-0.8,1.4-1.1s1.2-0.4,1.9-0.4c0.5,0,0.9,0.1,1.4,0.2c0.5,0.1,0.8,0.3,1,0.4l-0.3,0.8c-0.6-0.3-1.3-0.5-2.1-0.5
		c-1,0-1.8,0.4-2.4,1.1s-0.9,1.8-0.9,3c0,1.2,0.3,2.2,0.9,2.9c0.6,0.7,1.4,1.1,2.4,1.1c0.7,0,1.5-0.2,2.3-0.5l0.2,0.8
		c-0.3,0.2-0.6,0.4-1.1,0.5S434.1,65.2,433.7,65.2z"/>
	<path class="st1" d="M438.2,65V51.6l1.1-0.1v4.6c0,0.1,0,0.2,0,0.3s0,0.1,0,0.1s0,0,0,0.1c0,0.1,0,0.1,0,0.3
		c0.8-1.1,1.9-1.6,3.4-1.6c2.1,0,3.1,1.3,3.1,3.8v6h-1.1v-5.8c0-1.1-0.2-1.9-0.5-2.4s-0.9-0.7-1.8-0.7c-0.8,0-1.5,0.2-2.1,0.7
		s-0.9,1-1,1.7c0,0.2,0,0.6,0,1V65H438.2z"/>
	<path class="st1" d="M448.4,53.4v-1.5h1.1v1.5H448.4z M448.4,65v-9.6h1.1V65H448.4z"/>
	<path class="st1" d="M452.2,65v-9.6h0.9l0.1,1.5c0.3-0.5,0.8-0.9,1.4-1.2s1.2-0.4,1.9-0.4c1.1,0,1.9,0.3,2.4,0.9s0.8,1.6,0.8,2.9v6
		h-1.1v-6.5c0-0.9-0.2-1.5-0.5-1.8s-0.9-0.6-1.6-0.6c-0.9,0-1.6,0.2-2.1,0.7c-0.6,0.4-0.9,1-1,1.7c0,0.3,0,0.6,0,0.9V65H452.2z"/>
	<path class="st1" d="M463.8,69.5l-0.1-1h2c0.5,0,0.8,0,1.2-0.1s0.6-0.2,0.9-0.3c0.2-0.1,0.4-0.3,0.6-0.5c0.2-0.2,0.3-0.4,0.4-0.7
		s0.2-0.5,0.2-0.9s0.1-0.7,0.1-1s0-0.7,0-1.1c0,0.1,0,0,0,0l0-0.6c-0.4,0.6-0.8,1-1.3,1.3s-1.1,0.5-1.8,0.5c-0.6,0-1.1-0.1-1.6-0.3
		s-0.9-0.5-1.2-0.8s-0.6-0.7-0.8-1.1s-0.4-0.8-0.4-1.3s-0.1-0.8-0.1-1.2c0-0.5,0-1,0.1-1.5c0.1-0.5,0.2-0.9,0.4-1.4s0.5-0.8,0.8-1.2
		s0.7-0.6,1.2-0.8s1.1-0.3,1.7-0.3c0.6,0,1.2,0.1,1.6,0.4s0.9,0.6,1.3,1.2l0.1-1.4h1v8.9c0,0.4,0,0.7,0,0.9c0,0.2,0,0.6-0.1,1
		c-0.1,0.4-0.1,0.7-0.3,1c-0.1,0.3-0.3,0.5-0.5,0.9s-0.5,0.6-0.8,0.7c-0.3,0.2-0.7,0.3-1.2,0.5s-1,0.2-1.7,0.2H463.8z M466,64.1
		c0.4,0,0.8-0.1,1.2-0.2s0.6-0.3,0.9-0.5s0.4-0.5,0.6-0.8c0.2-0.3,0.3-0.6,0.3-0.9s0.1-0.7,0.1-1v-1c0-0.5-0.1-0.9-0.2-1.3
		s-0.3-0.8-0.5-1.1s-0.5-0.6-1-0.8s-0.9-0.3-1.4-0.3c-0.4,0-0.8,0.1-1.2,0.3s-0.6,0.4-0.9,0.7s-0.4,0.6-0.6,1s-0.3,0.7-0.3,1.1
		c-0.1,0.4-0.1,0.8-0.1,1.2c0,0.4,0,0.7,0.1,1c0.1,0.3,0.2,0.7,0.3,1c0.1,0.3,0.3,0.6,0.5,0.9s0.5,0.5,0.9,0.6
		C465.1,64,465.6,64.1,466,64.1z"/>
</g>
<g>
	<path class="st1" d="M574.8,424.5v-11.6h1.4l4.3,9.8l4.2-9.8h1.4v11.6h-1v-7.8l0.1-2.6l-0.3,0.9l-3.8,8.9h-1.1L576,415l-0.3-0.9
		l0.1,2.7v7.8H574.8z"/>
	<path class="st1" d="M590.9,424.7c-0.8,0-1.5-0.2-1.9-0.6s-0.7-1-0.7-1.7c0-0.4,0.1-0.8,0.3-1.2c0.2-0.3,0.5-0.6,0.8-0.8
		c0.4-0.2,0.8-0.4,1.3-0.5c0.5-0.1,1-0.2,1.6-0.2c0.7,0,1.2-0.1,1.5-0.1v-1c0-0.7-0.1-1.1-0.4-1.5c-0.3-0.3-0.8-0.5-1.4-0.5
		c-0.9,0-1.8,0.2-2.5,0.6c0-0.1-0.1-0.2-0.1-0.3c-0.1-0.2-0.1-0.3-0.2-0.4c0.3-0.2,0.7-0.4,1.3-0.5s1-0.2,1.5-0.2
		c1,0,1.8,0.2,2.2,0.7c0.4,0.4,0.7,1.2,0.7,2.3v5.7h-0.8c0-0.1-0.1-0.4-0.1-0.7c0-0.4-0.1-0.5-0.1-0.5
		C593.1,424.2,592.1,424.7,590.9,424.7z M590.9,423.9c0.7,0,1.3-0.2,1.8-0.6c0.5-0.4,0.9-0.9,1-1.6v-1.5c-0.8,0.1-1.1,0.1-1.1,0.1
		c-1.3,0.1-2.2,0.3-2.6,0.6c-0.5,0.3-0.7,0.8-0.7,1.4c0,0.5,0.2,0.9,0.5,1.2C590,423.8,590.4,423.9,590.9,423.9z"/>
	<path class="st1" d="M599.5,424.7c-0.6,0-1.1-0.1-1.6-0.2s-0.9-0.3-1.1-0.5l0.1-0.8c0.9,0.4,1.7,0.7,2.5,0.7c1.4,0,2.1-0.5,2.2-1.6
		c0-0.4-0.1-0.8-0.4-1s-0.9-0.5-1.7-0.8c-0.4-0.2-0.7-0.2-0.7-0.3c-1.3-0.4-2-1.1-2-2.2c0-0.6,0.3-1.1,0.8-1.6s1.2-0.7,2.1-0.7
		s1.7,0.2,2.5,0.5l-0.3,0.7c-0.8-0.3-1.5-0.5-2.2-0.5c-0.6,0-1.1,0.1-1.4,0.4c-0.3,0.3-0.5,0.6-0.5,1.1c0,0.4,0.1,0.7,0.3,0.9
		c0.2,0.2,0.7,0.4,1.3,0.6c0.1,0,0.2,0.1,0.4,0.1c0.2,0.1,0.3,0.1,0.3,0.1c0.9,0.3,1.5,0.6,1.9,1c0.4,0.4,0.5,0.9,0.5,1.5
		c0,0.8-0.3,1.3-0.8,1.7C601.1,424.5,600.4,424.7,599.5,424.7z"/>
	<path class="st1" d="M606.8,424.7c-0.7,0-1.2-0.2-1.6-0.5s-0.5-0.9-0.5-1.6v-6h-1.2l0.1-0.6l1.2-0.1l0.3-2l0.7,0v2h2.5v0.7h-2.5
		v5.8c0,0.6,0.1,1,0.3,1.2c0.2,0.2,0.5,0.3,1,0.3c0.3,0,0.7-0.1,1.2-0.2l0,0.8C607.6,424.6,607.1,424.7,606.8,424.7z"/>
	<path class="st1" d="M613.1,424.7c-1.2,0-2.1-0.4-2.8-1.2c-0.7-0.8-1-1.9-1-3.2c0-1.3,0.3-2.4,1-3.2c0.7-0.8,1.6-1.3,2.6-1.3
		c1,0,1.8,0.4,2.4,1.1s0.9,1.7,0.9,2.9c0,0,0,0.1,0,0.3c0,0.1,0,0.2,0,0.3h-6c0,1.1,0.3,2,0.8,2.6c0.5,0.6,1.2,1,2.1,1
		c0.6,0,1-0.1,1.5-0.2c0.4-0.1,0.8-0.3,1.3-0.6l0.2,0.7C615.2,424.4,614.2,424.7,613.1,424.7z M610.3,419.6h4.9c0-1-0.2-1.7-0.6-2.2
		s-1-0.8-1.7-0.8c-0.7,0-1.3,0.3-1.8,0.8C610.7,418,610.4,418.7,610.3,419.6z"/>
	<path class="st1" d="M618.2,424.5c0-5,0-7.9,0-8.6h0.8l0.1,1.7c0.3-0.5,0.7-0.9,1.2-1.2c0.5-0.3,1-0.5,1.5-0.5c0.2,0,0.4,0,0.7,0.1
		l-0.1,0.8c-0.2,0-0.4,0-0.6,0c-0.7,0-1.3,0.3-1.8,0.9s-0.7,1.2-0.7,2v4.9H618.2z"/>
</g>
<g>
	<path class="st2" d="M676.8,324v-11.6h1.2l6.4,9.8l0.4,0.6c0-1.6-0.1-2.6-0.1-3v-7.4h0.9V324h-1.2l-6.4-9.8l-0.4-0.6
		c0,1.2,0.1,2.2,0.1,3v7.3H676.8z"/>
	<path class="st2" d="M691.7,324.2c-1.2,0-2.1-0.4-2.8-1.2c-0.7-0.8-1-1.9-1-3.2c0-1.3,0.3-2.4,1-3.2c0.7-0.8,1.6-1.3,2.6-1.3
		c1,0,1.8,0.4,2.4,1.1s0.9,1.7,0.9,2.9c0,0,0,0.1,0,0.3c0,0.1,0,0.2,0,0.3h-6c0,1.1,0.3,2,0.8,2.6c0.5,0.6,1.2,1,2.1,1
		c0.6,0,1-0.1,1.5-0.2c0.4-0.1,0.8-0.3,1.3-0.6l0.2,0.7C693.7,323.9,692.7,324.2,691.7,324.2z M688.9,319.1h4.9c0-1-0.2-1.7-0.6-2.2
		s-1-0.8-1.7-0.8c-0.7,0-1.3,0.3-1.8,0.8C689.2,317.5,688.9,318.2,688.9,319.1z"/>
	<path class="st2" d="M698.1,324l-2.4-8.6h1l2,7.6c1.4-4.6,2.2-7.1,2.4-7.6h1.2c1.6,5.1,2.3,7.6,2.4,7.6l1.9-7.6h1l-2.4,8.6h-1.1
		c0,0-0.4-1.2-1.1-3.6s-1.1-3.8-1.2-4.2c-0.1,0.3-0.3,1.1-0.7,2.4s-0.8,2.5-1.2,3.7s-0.6,1.8-0.6,1.8H698.1z"/>
	<path class="st2" d="M712.8,324v-11.6h3.2c1.4,0,2.5,0.2,3.2,0.7c0.7,0.5,1,1.2,1,2.2c0,0.1,0,0.2,0,0.3c0,0.1,0,0.2,0,0.3
		c0,0.2-0.1,0.3-0.1,0.4c0,0.1-0.1,0.3-0.2,0.4c-0.1,0.2-0.2,0.3-0.3,0.4s-0.3,0.3-0.5,0.4c-0.2,0.1-0.5,0.2-0.7,0.3
		c0.8,0.1,1.4,0.4,1.9,1s0.6,1.2,0.6,1.9c0,1-0.3,1.8-1,2.4s-1.7,0.9-3,0.9H712.8z M713.8,317.6h2.7c0.4,0,0.8,0,1.1-0.1
		s0.6-0.2,0.8-0.3c0.2-0.2,0.4-0.4,0.5-0.7c0.1-0.3,0.2-0.7,0.2-1.1c0-0.8-0.3-1.4-0.8-1.7c-0.5-0.3-1.3-0.5-2.4-0.5h-2.1V317.6z
		 M713.8,323.2h2.7c2.1,0,3.2-0.8,3.2-2.5c0-0.9-0.3-1.5-0.9-1.9s-1.5-0.5-2.7-0.5h-2.2V323.2z"/>
	<path class="st2" d="M722.4,324c0-5,0-7.9,0-8.6h0.8l0.1,1.7c0.3-0.5,0.7-0.9,1.2-1.2c0.5-0.3,1-0.5,1.5-0.5c0.2,0,0.4,0,0.7,0.1
		l-0.1,0.8c-0.2,0-0.4,0-0.6,0c-0.7,0-1.3,0.3-1.8,0.9s-0.7,1.2-0.7,2v4.9H722.4z"/>
	<path class="st2" d="M730.2,324.2c-0.8,0-1.5-0.2-1.9-0.6s-0.7-1-0.7-1.7c0-0.4,0.1-0.8,0.3-1.2c0.2-0.3,0.5-0.6,0.8-0.8
		c0.4-0.2,0.8-0.4,1.3-0.5c0.5-0.1,1-0.2,1.6-0.2c0.7,0,1.2-0.1,1.5-0.1v-1c0-0.7-0.1-1.1-0.4-1.5c-0.3-0.3-0.8-0.5-1.4-0.5
		c-0.9,0-1.8,0.2-2.5,0.6c0-0.1-0.1-0.2-0.1-0.3c-0.1-0.2-0.1-0.3-0.2-0.4c0.3-0.2,0.7-0.4,1.3-0.5s1-0.2,1.5-0.2
		c1,0,1.8,0.2,2.2,0.7c0.4,0.4,0.7,1.2,0.7,2.3v5.7h-0.8c0-0.1-0.1-0.4-0.1-0.7c0-0.4-0.1-0.5-0.1-0.5
		C732.4,323.7,731.4,324.2,730.2,324.2z M730.2,323.4c0.7,0,1.3-0.2,1.8-0.6c0.5-0.4,0.9-0.9,1-1.6v-1.5c-0.8,0.1-1.1,0.1-1.1,0.1
		c-1.3,0.1-2.2,0.3-2.6,0.6c-0.5,0.3-0.7,0.8-0.7,1.4c0,0.5,0.2,0.9,0.5,1.2C729.3,323.3,729.7,323.4,730.2,323.4z"/>
	<path class="st2" d="M736.3,324v-8.6h0.8l0.1,1.3c0.3-0.5,0.7-0.8,1.2-1.1c0.5-0.3,1.1-0.4,1.7-0.4c1,0,1.7,0.3,2.2,0.8
		c0.5,0.5,0.7,1.4,0.7,2.6v5.3h-1v-5.8c0-0.8-0.2-1.3-0.5-1.6c-0.3-0.3-0.8-0.5-1.5-0.5c-0.8,0-1.4,0.2-1.9,0.6s-0.8,0.9-0.9,1.5
		c0,0.2,0,0.5,0,0.8v5H736.3z"/>
	<path class="st2" d="M748.9,324.2c-0.8,0-1.5-0.2-2.2-0.6s-1.1-0.9-1.4-1.6c-0.3-0.7-0.4-1.4-0.4-2.2c0-0.6,0.1-1.2,0.3-1.7
		c0.2-0.5,0.4-1,0.8-1.4c0.3-0.4,0.7-0.7,1.3-1s1.1-0.4,1.7-0.4c0.4,0,0.8,0.1,1.2,0.2s0.7,0.2,0.9,0.4l-0.3,0.7
		c-0.5-0.3-1.2-0.5-1.9-0.5c-0.9,0-1.6,0.3-2.1,1c-0.5,0.7-0.8,1.6-0.8,2.7c0,1.1,0.3,1.9,0.8,2.6c0.5,0.7,1.2,1,2.1,1
		c0.6,0,1.3-0.2,2-0.5l0.1,0.7c-0.2,0.2-0.6,0.3-1,0.4S749.3,324.2,748.9,324.2z"/>
	<path class="st2" d="M752.8,324v-11.9l1-0.1v4.1c0,0.1,0,0.2,0,0.2c0,0,0,0.1,0,0.1c0,0,0,0,0,0.1c0,0.1,0,0.1,0,0.2
		c0.7-1,1.7-1.5,3-1.5c1.9,0,2.8,1.1,2.8,3.4v5.4h-1v-5.2c0-1-0.1-1.7-0.4-2.1s-0.8-0.6-1.6-0.6c-0.7,0-1.4,0.2-1.9,0.6
		c-0.5,0.4-0.8,0.9-0.9,1.5c0,0.2,0,0.5,0,0.9v4.9H752.8z"/>
</g>
<circle class="st2" cx="718" cy="294.5" r="8"/>
<circle class="st2" cx="598" cy="294.5" r="8"/>
<line class="st3" x1="478" y1="394.5" x2="598" y2="294.5"/>
<line class="st3" x1="598" y1="294.5" x2="718" y2="294.5"/>
<circle class="st1" cx="358" cy="394.5" r="8"/>
<circle class="st1" cx="238" cy="394.5" r="8"/>
<circle class="st1" cx="118" cy="394.5" r="8"/>
<circle class="st1" cx="598" cy="394.5" r="8"/>
<circle class="st1" cx="478" cy="394.5" r="8"/>
<line class="st0" x1="118" y1="394.5" x2="598" y2="394.5"/>
</svg>
