<?xml version="1.0" encoding="utf-8"?>
<!-- Generator: Adobe Illustrator 19.1.0, SVG Export Plug-In . SVG Version: 6.00 Build 0)  -->
<!DOCTYPE svg PUBLIC "-//W3C//DTD SVG 1.1//EN" "http://www.w3.org/Graphics/SVG/1.1/DTD/svg11.dtd">
<svg version="1.1" id="CONTENT" xmlns="http://www.w3.org/2000/svg" xmlns:xlink="http://www.w3.org/1999/xlink" x="0px" y="0px"
	 viewBox="0 0 836 648" style="enable-background:new 0 0 836 648;" xml:space="preserve">
<rect width="100%" height="100%" fill="#204056"/>
<style type="text/css">
	.st0{fill:none;stroke:#FFFFFF;stroke-miterlimit:10;}
	.st1{fill:#FFFFFF;}
	.st2{fill:#52B1DB;}
	.st3{fill:none;stroke:#52B1DB;stroke-miterlimit:10;}
	.st4{opacity:0.25;fill:#FFFFFF;}
</style>
<line class="st0" x1="178" y1="194.5" x2="658" y2="194.5"/>
<g>
	<path class="st1" d="M179.4,220.1c0-0.9-0.4-1.4-1.2-1.4c-0.4,0-0.8,0-1.2,0.1s-0.8,0.2-0.9,0.2l-0.3-0.8c0.8-0.3,1.6-0.4,2.3-0.4
		s1.3,0.2,1.7,0.5s0.6,0.8,0.6,1.5v4.6h-0.9l-0.1-0.7c-0.2,0.3-0.6,0.5-1,0.6s-0.8,0.3-1.2,0.3c-0.5,0-1-0.2-1.4-0.5
		s-0.5-0.8-0.5-1.4s0.2-1,0.7-1.3c0.3-0.2,0.7-0.3,1-0.4s0.8-0.1,1.4-0.2l0.9-0.1V220.1z M179.4,223.1v-1.6l-0.9,0.1
		c-0.6,0.1-1,0.2-1.3,0.3c-0.5,0.2-0.8,0.5-0.8,1c0,0.3,0.1,0.6,0.3,0.8s0.4,0.3,0.8,0.3C178.2,223.9,178.9,223.6,179.4,223.1z"/>
</g>
<g>
	<path class="st1" d="M296.5,219c0.4-0.7,1.1-1.1,1.9-1.1s1.5,0.3,1.9,0.9s0.6,1.4,0.6,2.4c0,1.2-0.3,2.2-0.9,2.8
		c-0.4,0.5-1,0.7-1.7,0.7c-0.5,0-0.8-0.1-1.1-0.3s-0.5-0.4-0.8-0.8l0,0.9h-1.1v-9.1l1.1-0.1V219z M296.5,222.1
		c0.1,0.5,0.2,1,0.5,1.3c0.3,0.3,0.7,0.5,1.2,0.5c0.7,0,1.2-0.4,1.5-1.1c0.1-0.4,0.2-0.8,0.2-1.2s0-0.8,0-1c-0.1-0.5-0.2-1-0.5-1.3
		s-0.6-0.5-1.2-0.5c-0.9,0-1.4,0.4-1.6,1.3c-0.1,0.4-0.1,0.7-0.1,1.1S296.5,221.8,296.5,222.1z"/>
</g>
<g>
	<path class="st1" d="M420.3,224.1c-0.4,0.4-1,0.6-1.8,0.6c-0.5,0-0.9-0.1-1.3-0.3s-0.7-0.4-1-0.7c-0.5-0.7-0.8-1.4-0.8-2.4
		c0-0.6,0.1-1.2,0.4-1.7s0.6-0.9,1.1-1.2s1.1-0.5,1.8-0.5s1.2,0.2,1.6,0.6l-0.3,0.7c-0.4-0.3-1-0.5-1.5-0.5s-1,0.2-1.4,0.7
		s-0.6,1.1-0.6,1.8s0.2,1.4,0.6,1.8s0.8,0.7,1.4,0.7s1.1-0.2,1.5-0.5L420.3,224.1z"/>
</g>
<g>
	<path class="st1" d="M539.5,219v-3.5l1.1-0.1v9.2h-1.1v-1c-0.4,0.8-1,1.1-1.8,1.1c-0.9,0-1.6-0.3-2-1s-0.6-1.5-0.6-2.4
		c0-1.2,0.3-2.1,0.9-2.7c0.4-0.4,1-0.7,1.7-0.7c0.5,0,0.9,0.1,1.2,0.3S539.4,218.6,539.5,219z M539.5,221.2c0-1-0.1-1.7-0.4-2
		s-0.7-0.5-1.3-0.5c-0.8,0-1.2,0.4-1.5,1.1c-0.1,0.4-0.2,0.9-0.2,1.5c0,1.7,0.6,2.5,1.7,2.5C539,223.8,539.5,223,539.5,221.2z"/>
</g>
<g>
	<path class="st1" d="M179.4,500.1c0-0.9-0.4-1.4-1.2-1.4c-0.4,0-0.8,0-1.2,0.1s-0.8,0.2-0.9,0.2l-0.3-0.8c0.8-0.3,1.6-0.4,2.3-0.4
		s1.3,0.2,1.7,0.5s0.6,0.8,0.6,1.5v4.6h-0.9l-0.1-0.7c-0.2,0.3-0.6,0.5-1,0.6s-0.8,0.3-1.2,0.3c-0.5,0-1-0.2-1.4-0.5
		s-0.5-0.8-0.5-1.4s0.2-1,0.7-1.3c0.3-0.2,0.7-0.3,1-0.4s0.8-0.1,1.4-0.2l0.9-0.1V500.1z M179.4,503.1v-1.6l-0.9,0.1
		c-0.6,0.1-1,0.2-1.3,0.3c-0.5,0.2-0.8,0.5-0.8,1c0,0.3,0.1,0.6,0.3,0.8s0.4,0.3,0.8,0.3C178.2,503.9,178.9,503.6,179.4,503.1z"/>
</g>
<g>
	<path class="st1" d="M296.5,499c0.4-0.7,1.1-1.1,1.9-1.1s1.5,0.3,1.9,0.9s0.6,1.4,0.6,2.4c0,1.2-0.3,2.2-0.9,2.8
		c-0.4,0.5-1,0.7-1.7,0.7c-0.5,0-0.8-0.1-1.1-0.3s-0.5-0.4-0.8-0.8l0,0.9h-1.1v-9.1l1.1-0.1V499z M296.5,502.1
		c0.1,0.5,0.2,1,0.5,1.3c0.3,0.3,0.7,0.5,1.2,0.5c0.7,0,1.2-0.4,1.5-1.1c0.1-0.4,0.2-0.8,0.2-1.2s0-0.8,0-1c-0.1-0.5-0.2-1-0.5-1.3
		s-0.6-0.5-1.2-0.5c-0.9,0-1.4,0.4-1.6,1.3c-0.1,0.4-0.1,0.7-0.1,1.1S296.5,501.8,296.5,502.1z"/>
</g>
<g>
	<path class="st1" d="M368.8,134.5v-13.1h3.6c1.6,0,2.8,0.3,3.6,0.8c0.7,0.5,1.1,1.4,1.1,2.5c0,0.1,0,0.2,0,0.3c0,0.1,0,0.2,0,0.4
		s-0.1,0.4-0.1,0.5s-0.1,0.3-0.2,0.5s-0.2,0.4-0.4,0.5c-0.1,0.1-0.3,0.3-0.6,0.4s-0.5,0.3-0.8,0.4c0.9,0.1,1.6,0.5,2.1,1.1
		s0.7,1.3,0.7,2.1c0,1.2-0.4,2.1-1.1,2.7s-1.9,1-3.4,1H368.8z M369.9,127.2h3c0.5,0,0.9,0,1.2-0.1s0.6-0.2,0.9-0.4
		c0.3-0.2,0.5-0.4,0.6-0.8s0.2-0.7,0.2-1.2c0-0.9-0.3-1.5-0.8-1.9c-0.6-0.4-1.5-0.5-2.7-0.5h-2.4V127.2z M369.9,133.6h3
		c2.4,0,3.6-0.9,3.6-2.8c0-1-0.3-1.7-1-2.1s-1.7-0.6-3.1-0.6h-2.5V133.6z"/>
	<path class="st1" d="M383.5,134.7c-1.3,0-2.4-0.4-3.2-1.3c-0.8-0.9-1.2-2.1-1.2-3.6c0-1.5,0.4-2.7,1.1-3.6c0.8-0.9,1.8-1.4,3-1.5
		c1.1,0,2,0.4,2.7,1.2s1,1.9,1,3.3c0,0.1,0,0.2,0,0.3c0,0.2,0,0.3,0,0.3h-6.7c0,1.2,0.3,2.2,0.9,2.9s1.4,1.1,2.3,1.1
		c0.6,0,1.2-0.1,1.6-0.2s0.9-0.4,1.5-0.6l0.2,0.8C385.8,134.4,384.7,134.7,383.5,134.7z M380.4,128.9h5.5c0-1.1-0.2-1.9-0.7-2.5
		s-1.1-0.9-1.9-0.9c-0.8,0-1.5,0.3-2,0.9S380.5,127.9,380.4,128.9z"/>
	<path class="st1" d="M389.8,134.5v-8.8h-1.6l0.1-0.7l1.5-0.1v-0.4c0-1.3,0.2-2.2,0.7-2.8c0.4-0.6,1.1-0.9,2-0.9
		c0.3,0,0.7,0,1.3,0.1l-0.1,0.7c-0.6-0.1-0.9-0.1-1.1-0.1c-0.7,0-1.1,0.2-1.4,0.6c-0.2,0.4-0.4,1.2-0.4,2.3v0.3h2.3v0.8h-2.3v8.8
		H389.8z"/>
	<path class="st1" d="M398.6,134.7c-0.9,0-1.6-0.2-2.3-0.7c-0.7-0.4-1.2-1-1.5-1.8s-0.5-1.6-0.5-2.6c0-0.7,0.1-1.4,0.3-2
		c0.2-0.6,0.5-1.1,0.9-1.6s0.8-0.8,1.4-1.1s1.2-0.4,1.9-0.4c0.9,0,1.7,0.2,2.3,0.7s1.2,1,1.5,1.8s0.5,1.6,0.5,2.6
		c0,1-0.2,1.8-0.5,2.6s-0.8,1.3-1.5,1.8S399.5,134.7,398.6,134.7z M398.7,133.8c0.7,0,1.3-0.2,1.8-0.6c0.5-0.4,0.8-0.9,1.1-1.5
		c0.2-0.6,0.3-1.3,0.3-2.1c0-1.2-0.3-2.2-0.8-3s-1.3-1.1-2.4-1.1c-0.7,0-1.3,0.2-1.8,0.6s-0.9,0.9-1.1,1.5s-0.3,1.3-0.3,2.1
		c0,1.2,0.3,2.2,0.8,3C396.8,133.5,397.6,133.8,398.7,133.8z"/>
	<path class="st1" d="M405.2,134.5c0-5.7,0-8.9,0-9.6h0.9l0.1,1.9c0.3-0.6,0.8-1,1.3-1.4s1.1-0.5,1.7-0.5c0.2,0,0.5,0,0.8,0.1
		l-0.1,0.9c-0.2,0-0.4-0.1-0.7-0.1c-0.8,0-1.5,0.3-2.1,1c-0.6,0.6-0.8,1.4-0.8,2.3v5.5H405.2z"/>
	<path class="st1" d="M415.2,134.7c-1.3,0-2.4-0.4-3.2-1.3c-0.8-0.9-1.2-2.1-1.2-3.6c0-1.5,0.4-2.7,1.1-3.6c0.8-0.9,1.8-1.4,3-1.5
		c1.1,0,2,0.4,2.7,1.2s1,1.9,1,3.3c0,0.1,0,0.2,0,0.3c0,0.2,0,0.3,0,0.3H412c0,1.2,0.3,2.2,0.9,2.9s1.4,1.1,2.3,1.1
		c0.6,0,1.2-0.1,1.6-0.2s0.9-0.4,1.5-0.6l0.2,0.8C417.5,134.4,416.4,134.7,415.2,134.7z M412,128.9h5.5c0-1.1-0.2-1.9-0.7-2.5
		s-1.1-0.9-1.9-0.9c-0.8,0-1.5,0.3-2,0.9S412.1,127.9,412,128.9z"/>
	<path class="st1" d="M425.2,134.5v-13.1h3.7c0.5,0,0.9,0,1.2,0s0.7,0.1,1.1,0.1s0.7,0.1,0.9,0.2c0.3,0.1,0.5,0.2,0.7,0.4
		s0.4,0.4,0.6,0.6s0.2,0.5,0.3,0.8c0.1,0.3,0.1,0.7,0.1,1.1c0,0.8-0.2,1.5-0.6,2.1s-1,1-1.8,1.2c0.4,0.7,0.6,1.3,0.8,1.6l2.1,4.9
		h-1.3l-1.8-4.5c-0.1-0.3-0.4-0.9-0.8-1.9c-0.1,0-0.6,0-1.3,0l-2.8-0.1v6.4H425.2z M429.7,127.2c1.2,0,2-0.2,2.4-0.6s0.7-1,0.7-1.9
		c0-0.8-0.2-1.3-0.6-1.8s-1.1-0.6-2.1-0.6h-3.7v4.8C427.7,127.2,428.8,127.2,429.7,127.2z"/>
	<path class="st1" d="M440.6,134.7c-1.3,0-2.4-0.4-3.2-1.3c-0.8-0.9-1.2-2.1-1.2-3.6c0-1.5,0.4-2.7,1.1-3.6c0.8-0.9,1.8-1.4,3-1.5
		c1.1,0,2,0.4,2.7,1.2s1,1.9,1,3.3c0,0.1,0,0.2,0,0.3c0,0.2,0,0.3,0,0.3h-6.7c0,1.2,0.3,2.2,0.9,2.9s1.4,1.1,2.3,1.1
		c0.6,0,1.2-0.1,1.6-0.2s0.9-0.4,1.5-0.6l0.2,0.8C442.9,134.4,441.8,134.7,440.6,134.7z M437.4,128.9h5.5c0-1.1-0.2-1.9-0.7-2.5
		s-1.1-0.9-1.9-0.9c-0.8,0-1.5,0.3-2,0.9S437.5,127.9,437.4,128.9z"/>
	<path class="st1" d="M449.1,134.7c-0.6,0-1.2-0.1-1.7-0.2s-1-0.3-1.3-0.5l0.2-0.9c1,0.5,1.9,0.8,2.8,0.8c1.6,0,2.4-0.6,2.5-1.8
		c0-0.5-0.2-0.9-0.5-1.2c-0.3-0.3-1-0.6-1.9-0.9c-0.5-0.2-0.8-0.3-0.8-0.3c-1.5-0.5-2.3-1.3-2.3-2.4c0-0.7,0.3-1.3,0.9-1.8
		s1.4-0.8,2.4-0.8s2,0.2,2.9,0.6l-0.4,0.8c-0.9-0.3-1.7-0.5-2.5-0.5c-0.7,0-1.2,0.2-1.6,0.5c-0.4,0.3-0.6,0.7-0.6,1.2
		c0,0.4,0.1,0.8,0.4,1c0.3,0.2,0.8,0.5,1.5,0.7c0.1,0,0.2,0.1,0.5,0.2c0.2,0.1,0.3,0.1,0.4,0.1c1,0.3,1.7,0.7,2.1,1.1
		c0.4,0.4,0.6,1,0.6,1.7c0,0.8-0.3,1.5-0.9,2S450.1,134.7,449.1,134.7z"/>
	<path class="st1" d="M458.5,134.7c-1.3,0-2.4-0.4-3.2-1.3c-0.8-0.9-1.2-2.1-1.2-3.6c0-1.5,0.4-2.7,1.1-3.6c0.8-0.9,1.8-1.4,3-1.5
		c1.1,0,2,0.4,2.7,1.2s1,1.9,1,3.3c0,0.1,0,0.2,0,0.3c0,0.2,0,0.3,0,0.3h-6.7c0,1.2,0.3,2.2,0.9,2.9s1.4,1.1,2.3,1.1
		c0.6,0,1.2-0.1,1.6-0.2s0.9-0.4,1.5-0.6l0.2,0.8C460.8,134.4,459.7,134.7,458.5,134.7z M455.3,128.9h5.5c0-1.1-0.2-1.9-0.7-2.5
		s-1.1-0.9-1.9-0.9c-0.8,0-1.5,0.3-2,0.9S455.4,127.9,455.3,128.9z"/>
	<path class="st1" d="M466.9,134.7c-0.8,0-1.4-0.2-1.8-0.5s-0.6-1-0.6-1.8v-6.7h-1.4l0.1-0.7l1.3-0.1l0.3-2.2l0.8-0.1v2.2h2.8v0.8
		h-2.8v6.5c0,0.7,0.1,1.1,0.3,1.4s0.6,0.3,1.2,0.3c0.4,0,0.8-0.1,1.4-0.2l0,0.8C467.8,134.6,467.3,134.7,466.9,134.7z"/>
</g>
<g>
	<path class="st1" d="M374.1,404.5l5.1-13.1h1.1l4.9,13.1h-1.2l-1.7-4.4H377l-1.7,4.4H374.1z M377.4,399.2h4.6
		c-1.3-3.8-2.1-6-2.2-6.7c-0.1,0.3-0.3,0.9-0.7,2.1s-0.8,2.2-1.1,3.1L377.4,399.2z"/>
	<path class="st1" d="M387.2,404.5v-8.8h-1.6l0.1-0.7l1.5-0.1v-0.4c0-1.3,0.2-2.2,0.7-2.8c0.4-0.6,1.1-0.9,2-0.9
		c0.3,0,0.7,0,1.3,0.1l-0.1,0.7c-0.6-0.1-0.9-0.1-1.1-0.1c-0.7,0-1.1,0.2-1.4,0.6c-0.2,0.4-0.4,1.2-0.4,2.3v0.3h2.3v0.8h-2.3v8.8
		H387.2z"/>
	<path class="st1" d="M394.9,404.7c-0.8,0-1.4-0.2-1.8-0.5c-0.4-0.4-0.6-1-0.6-1.8v-6.7h-1.4l0.1-0.7l1.3-0.1l0.3-2.2l0.8-0.1v2.2
		h2.8v0.8h-2.8v6.5c0,0.7,0.1,1.1,0.3,1.4c0.2,0.2,0.6,0.3,1.2,0.3c0.4,0,0.8-0.1,1.4-0.2l0,0.8
		C395.8,404.6,395.3,404.7,394.9,404.7z"/>
	<path class="st1" d="M402,404.7c-1.3,0-2.4-0.4-3.2-1.3c-0.8-0.9-1.2-2.1-1.2-3.6c0-1.5,0.4-2.7,1.1-3.6c0.8-0.9,1.8-1.4,3-1.5
		c1.1,0,2,0.4,2.7,1.2s1,1.9,1,3.3c0,0.1,0,0.2,0,0.3c0,0.2,0,0.3,0,0.3h-6.7c0,1.2,0.3,2.2,0.9,2.9c0.6,0.7,1.4,1.1,2.3,1.1
		c0.6,0,1.2-0.1,1.6-0.2s0.9-0.4,1.5-0.6l0.2,0.8C404.3,404.4,403.2,404.7,402,404.7z M398.9,398.9h5.5c0-1.1-0.2-1.9-0.7-2.5
		c-0.5-0.6-1.1-0.9-1.9-0.9c-0.8,0-1.5,0.3-2,0.9S399,397.9,398.9,398.9z"/>
	<path class="st1" d="M407.7,404.5c0-5.7,0-8.9,0-9.6h0.9l0.1,1.9c0.3-0.6,0.8-1,1.3-1.4s1.1-0.5,1.7-0.5c0.2,0,0.5,0,0.8,0.1
		l-0.1,0.9c-0.2,0-0.4-0.1-0.7-0.1c-0.8,0-1.5,0.3-2.1,1c-0.6,0.6-0.8,1.4-0.8,2.3v5.5H407.7z"/>
	<path class="st1" d="M418.4,404.5v-13.1h3.7c0.5,0,0.9,0,1.2,0s0.7,0.1,1.1,0.1s0.7,0.1,0.9,0.2c0.3,0.1,0.5,0.2,0.7,0.4
		s0.4,0.4,0.6,0.6c0.1,0.2,0.2,0.5,0.3,0.8c0.1,0.3,0.1,0.7,0.1,1.1c0,0.8-0.2,1.5-0.6,2.1s-1,1-1.8,1.2c0.4,0.7,0.6,1.3,0.8,1.6
		l2.1,4.9h-1.3l-1.8-4.5c-0.1-0.3-0.4-0.9-0.8-1.9c-0.1,0-0.6,0-1.3,0l-2.8-0.1v6.4H418.4z M422.8,397.2c1.2,0,2-0.2,2.4-0.6
		c0.5-0.4,0.7-1,0.7-1.9c0-0.8-0.2-1.3-0.6-1.8c-0.4-0.4-1.1-0.6-2.1-0.6h-3.7v4.8C420.9,397.2,422,397.2,422.8,397.2z"/>
	<path class="st1" d="M433.7,404.7c-1.3,0-2.4-0.4-3.2-1.3c-0.8-0.9-1.2-2.1-1.2-3.6c0-1.5,0.4-2.7,1.1-3.6c0.8-0.9,1.8-1.4,3-1.5
		c1.1,0,2,0.4,2.7,1.2s1,1.9,1,3.3c0,0.1,0,0.2,0,0.3c0,0.2,0,0.3,0,0.3h-6.7c0,1.2,0.3,2.2,0.9,2.9c0.6,0.7,1.4,1.1,2.3,1.1
		c0.6,0,1.2-0.1,1.6-0.2s0.9-0.4,1.5-0.6l0.2,0.8C436,404.4,434.9,404.7,433.7,404.7z M430.5,398.9h5.5c0-1.1-0.2-1.9-0.7-2.5
		c-0.5-0.6-1.1-0.9-1.9-0.9c-0.8,0-1.5,0.3-2,0.9S430.6,397.9,430.5,398.9z"/>
	<path class="st1" d="M442.2,404.7c-0.6,0-1.2-0.1-1.7-0.2s-1-0.3-1.3-0.5l0.2-0.9c1,0.5,1.9,0.8,2.8,0.8c1.6,0,2.4-0.6,2.5-1.8
		c0-0.5-0.2-0.9-0.5-1.2c-0.3-0.3-1-0.6-1.9-0.9c-0.5-0.2-0.8-0.3-0.8-0.3c-1.5-0.5-2.3-1.3-2.3-2.4c0-0.7,0.3-1.3,0.9-1.8
		c0.6-0.5,1.4-0.8,2.4-0.8s2,0.2,2.9,0.6l-0.4,0.8c-0.9-0.3-1.7-0.5-2.5-0.5c-0.7,0-1.2,0.2-1.6,0.5c-0.4,0.3-0.6,0.7-0.6,1.2
		c0,0.4,0.1,0.8,0.4,1c0.3,0.2,0.8,0.5,1.5,0.7c0.1,0,0.2,0.1,0.5,0.2c0.2,0.1,0.3,0.1,0.4,0.1c1,0.3,1.7,0.7,2.1,1.1
		c0.4,0.4,0.6,1,0.6,1.7c0,0.8-0.3,1.5-0.9,2S443.2,404.7,442.2,404.7z"/>
	<path class="st1" d="M451.6,404.7c-1.3,0-2.4-0.4-3.2-1.3c-0.8-0.9-1.2-2.1-1.2-3.6c0-1.5,0.4-2.7,1.1-3.6c0.8-0.9,1.8-1.4,3-1.5
		c1.1,0,2,0.4,2.7,1.2s1,1.9,1,3.3c0,0.1,0,0.2,0,0.3c0,0.2,0,0.3,0,0.3h-6.7c0,1.2,0.3,2.2,0.9,2.9c0.6,0.7,1.4,1.1,2.3,1.1
		c0.6,0,1.2-0.1,1.6-0.2s0.9-0.4,1.5-0.6l0.2,0.8C453.9,404.4,452.8,404.7,451.6,404.7z M448.4,398.9h5.5c0-1.1-0.2-1.9-0.7-2.5
		c-0.5-0.6-1.1-0.9-1.9-0.9c-0.8,0-1.5,0.3-2,0.9S448.5,397.9,448.4,398.9z"/>
	<path class="st1" d="M460,404.7c-0.8,0-1.4-0.2-1.8-0.5c-0.4-0.4-0.6-1-0.6-1.8v-6.7h-1.4l0.1-0.7l1.3-0.1l0.3-2.2l0.8-0.1v2.2h2.8
		v0.8h-2.8v6.5c0,0.7,0.1,1.1,0.3,1.4c0.2,0.2,0.6,0.3,1.2,0.3c0.4,0,0.8-0.1,1.4-0.2l0,0.8C460.9,404.6,460.4,404.7,460,404.7z"/>
</g>
<circle class="st1" cx="298" cy="474.5" r="8"/>
<circle class="st1" cx="178" cy="474.5" r="8"/>
<line class="st0" x1="178" y1="474.5" x2="418" y2="474.5"/>
<circle class="st1" cx="418" cy="194.5" r="8"/>
<circle class="st1" cx="298" cy="194.5" r="8"/>
<circle class="st1" cx="178" cy="194.5" r="8"/>
<circle class="st1" cx="538" cy="194.5" r="8"/>
<circle class="st4" cx="538" cy="474.5" r="8"/>
<circle class="st4" cx="658" cy="474.5" r="8"/>
<g>
	<g>
		<line class="st0" x1="418.5" y1="294.5" x2="418.5" y2="333.4"/>
		<g>
			<polygon class="st1" points="414.4,330.1 415.1,329.4 418.5,333 421.9,329.4 422.6,330.1 418.5,334.5 			"/>
		</g>
	</g>
</g>
<g>
	<path class="st2" d="M641.4,224.5h-1.5v-11.6h1.5v5h4.5v-5h1.5v11.6h-1.5V219h-4.5V224.5z"/>
	<path class="st2" d="M651.6,219.2v4.2h5.5l-0.1,1.1h-6.8v-11.6h6.7l-0.1,1.1h-5.1v3.9h4.9v1.2H651.6z"/>
	<path class="st2" d="M663.6,212.9l3.4,11.6h-1.5l-1.1-3.8h-3.3l-1.1,3.8h-1.5l3.4-11.6H663.6z M661.5,219.6h2.7l-1.3-5.1
		L661.5,219.6z"/>
	<path class="st2" d="M668.8,212.9h1.9c1.9,0,3.3,0.5,4.2,1.5c1,1,1.4,2.4,1.4,4.3s-0.5,3.3-1.5,4.3c-1,1-2.4,1.5-4.4,1.5h-1.7
		V212.9z M670.5,223.4c1.9,0,3.1-0.6,3.8-1.8c0.4-0.7,0.6-1.7,0.6-2.9c0-1.5-0.3-2.7-0.9-3.5s-1.7-1.2-3.4-1.2h-0.2v9.4H670.5z"/>
</g>
<g>
	<path class="st2" d="M401.4,504.5h-1.5v-11.6h1.5v5h4.5v-5h1.5v11.6h-1.5V499h-4.5V504.5z"/>
	<path class="st2" d="M411.6,499.2v4.2h5.5l-0.1,1.1h-6.8v-11.6h6.7l-0.1,1.1h-5.1v3.9h4.9v1.2H411.6z"/>
	<path class="st2" d="M423.6,492.9l3.4,11.6h-1.5l-1.1-3.8h-3.3l-1.1,3.8h-1.5l3.4-11.6H423.6z M421.5,499.6h2.7l-1.3-5.1
		L421.5,499.6z"/>
	<path class="st2" d="M428.8,492.9h1.9c1.9,0,3.3,0.5,4.2,1.5c1,1,1.4,2.4,1.4,4.3s-0.5,3.3-1.5,4.3c-1,1-2.4,1.5-4.4,1.5h-1.7
		V492.9z M430.5,503.4c1.9,0,3.1-0.6,3.8-1.8c0.4-0.7,0.6-1.7,0.6-2.9c0-1.5-0.3-2.7-0.9-3.5s-1.7-1.2-3.4-1.2h-0.2v9.4H430.5z"/>
</g>
<circle class="st2" cx="418" cy="474.5" r="8"/>
<circle class="st2" cx="658" cy="194.5" r="8"/>
</svg>
